<svg xmlns="http://www.w3.org/2000/svg" width="2000" height="1500" viewBox="0 0 2000 1500"><title>小型姜崃漫游 02 解锁 260915 AMD#1</title><rect width="100%" height="100%" fill="#ffffff"/><defs><marker id="arrow" viewBox="0 0 10 10" refX="9" refY="5" markerWidth="8" markerHeight="8" orient="auto-start-reverse"><path d="M 0 0 L 10 5 L 0 10 z" fill="#60758b"/></marker></defs><text x="1000" y="45" text-anchor="middle" dominant-baseline="middle" font-family="Microsoft YaHei, Noto Sans CJK SC, sans-serif" font-size="32" font-weight="600" fill="#183348"><tspan x="1000" dy="0">小型姜崃漫游 · 02 解锁</tspan></text><text x="1000" y="85" text-anchor="middle" dominant-baseline="middle" font-family="Microsoft YaHei, Noto Sans CJK SC, sans-serif" font-size="18" font-weight="400" fill="#233449"><tspan x="1000" dy="0">方框：节点 / 结局　实线：玩家选择　虚线：系统条件　普通结局去重记录，集齐四个才解锁</tspan></text><polyline points="210,260 700,480" fill="none" stroke="#60758b" stroke-width="2.4" marker-end="url(#arrow)"/><polyline points="600,260 770,480" fill="none" stroke="#60758b" stroke-width="2.4" marker-end="url(#arrow)"/><polyline points="990,260 840,480" fill="none" stroke="#60758b" stroke-width="2.4" marker-end="url(#arrow)"/><polyline points="1380,260 910,480" fill="none" stroke="#60758b" stroke-width="2.4" marker-end="url(#arrow)"/><polyline points="800,560 800,700" fill="none" stroke="#60758b" stroke-width="2.4" marker-end="url(#arrow)"/><polyline points="725,780 350,930" fill="none" stroke="#60758b" stroke-width="2.4" stroke-dasharray="9 6" marker-end="url(#arrow)"/><polyline points="875,780 1210,930" fill="none" stroke="#60758b" stroke-width="2.4" stroke-dasharray="9 6" marker-end="url(#arrow)"/><polyline points="350,1010 350,1240" fill="none" stroke="#60758b" stroke-width="2.4" marker-end="url(#arrow)"/><polyline points="1060,970 750,970 750,1280 500,1280" fill="none" stroke="#60758b" stroke-width="2.4" marker-end="url(#arrow)"/><polyline points="1360,970 1510,970 1510,910 1210,910 1210,930" fill="none" stroke="#60758b" stroke-width="2.4" marker-end="url(#arrow)"/><polyline points="1210,1010 1210,1240" fill="none" stroke="#60758b" stroke-width="2.4" marker-end="url(#arrow)"/><polyline points="1580,520 950,520" fill="none" stroke="#60758b" stroke-width="2.4" marker-end="url(#arrow)"/><rect x="60" y="180" width="300" height="80" rx="5" fill="#e5f4eb" stroke="#438565" stroke-width="2"/><text x="210" y="220" text-anchor="middle" dominant-baseline="middle" font-family="Microsoft YaHei, Noto Sans CJK SC, sans-serif" font-size="22" font-weight="400" fill="#233449"><tspan x="210" dy="0">E1｜结局1</tspan></text><rect x="450" y="180" width="300" height="80" rx="5" fill="#e5f4eb" stroke="#438565" stroke-width="2"/><text x="600" y="220" text-anchor="middle" dominant-baseline="middle" font-family="Microsoft YaHei, Noto Sans CJK SC, sans-serif" font-size="22" font-weight="400" fill="#233449"><tspan x="600" dy="0">E2｜结局2</tspan></text><rect x="840" y="180" width="300" height="80" rx="5" fill="#e5f4eb" stroke="#438565" stroke-width="2"/><text x="990" y="220" text-anchor="middle" dominant-baseline="middle" font-family="Microsoft YaHei, Noto Sans CJK SC, sans-serif" font-size="22" font-weight="400" fill="#233449"><tspan x="990" dy="0">E3｜结局3</tspan></text><rect x="1230" y="180" width="300" height="80" rx="5" fill="#e5f4eb" stroke="#438565" stroke-width="2"/><text x="1380" y="220" text-anchor="middle" dominant-baseline="middle" font-family="Microsoft YaHei, Noto Sans CJK SC, sans-serif" font-size="22" font-weight="400" fill="#233449"><tspan x="1380" dy="0">E4｜结局4</tspan></text><rect x="650" y="480" width="300" height="80" rx="5" fill="#eef3fb" stroke="#52739b" stroke-width="2"/><text x="800" y="520" text-anchor="middle" dominant-baseline="middle" font-family="Microsoft YaHei, Noto Sans CJK SC, sans-serif" font-size="22" font-weight="400" fill="#233449"><tspan x="800" dy="0">M｜主菜单</tspan></text><rect x="650" y="700" width="300" height="80" rx="5" fill="#fff4d8" stroke="#bd8627" stroke-width="2"/><text x="800" y="740" text-anchor="middle" dominant-baseline="middle" font-family="Microsoft YaHei, Noto Sans CJK SC, sans-serif" font-size="22" font-weight="400" fill="#233449"><tspan x="800" dy="0">G｜进入条件检查</tspan></text><rect x="200" y="930" width="300" height="80" rx="5" fill="#eef3fb" stroke="#52739b" stroke-width="2"/><text x="350" y="970" text-anchor="middle" dominant-baseline="middle" font-family="Microsoft YaHei, Noto Sans CJK SC, sans-serif" font-size="22" font-weight="400" fill="#233449"><tspan x="350" dy="0">P1｜初次前言</tspan></text><rect x="1060" y="930" width="300" height="80" rx="5" fill="#eef3fb" stroke="#52739b" stroke-width="2"/><text x="1210" y="970" text-anchor="middle" dominant-baseline="middle" font-family="Microsoft YaHei, Noto Sans CJK SC, sans-serif" font-size="22" font-weight="400" fill="#233449"><tspan x="1210" dy="0">P2｜二阶段前言</tspan></text><rect x="200" y="1240" width="300" height="80" rx="5" fill="#eef3fb" stroke="#52739b" stroke-width="2"/><text x="350" y="1265.04" text-anchor="middle" dominant-baseline="middle" font-family="Microsoft YaHei, Noto Sans CJK SC, sans-serif" font-size="22" font-weight="400" fill="#233449"><tspan x="350" dy="0">L｜卢卡</tspan><tspan x="350" dy="29.92">（续一周目）</tspan></text><rect x="1060" y="1240" width="300" height="80" rx="5" fill="#fff4d8" stroke="#bd8627" stroke-width="2"/><text x="1210" y="1265.04" text-anchor="middle" dominant-baseline="middle" font-family="Microsoft YaHei, Noto Sans CJK SC, sans-serif" font-size="22" font-weight="400" fill="#233449"><tspan x="1210" dy="0">T0｜TE：身份选择</tspan><tspan x="1210" dy="29.92">（详见第3页）</tspan></text><rect x="1580" y="480" width="300" height="80" rx="5" fill="#e5f4eb" stroke="#438565" stroke-width="2"/><text x="1730" y="505.04" text-anchor="middle" dominant-baseline="middle" font-family="Microsoft YaHei, Noto Sans CJK SC, sans-serif" font-size="22" font-weight="400" fill="#233449"><tspan x="1730" dy="0">E5｜真正的世界</tspan><tspan x="1730" dy="29.92">（TE已完成）</tspan></text><rect x="332.5" y="332.5" width="115" height="35" rx="4" fill="#ffffff" fill-opacity=".96"/><text x="390" y="350" text-anchor="middle" dominant-baseline="middle" font-family="Microsoft YaHei, Noto Sans CJK SC, sans-serif" font-size="19" font-weight="400" fill="#233449"><tspan x="390" dy="0">返回主菜单</tspan></text><rect x="592.5" y="352.5" width="115" height="35" rx="4" fill="#ffffff" fill-opacity=".96"/><text x="650" y="370" text-anchor="middle" dominant-baseline="middle" font-family="Microsoft YaHei, Noto Sans CJK SC, sans-serif" font-size="19" font-weight="400" fill="#233449"><tspan x="650" dy="0">返回主菜单</tspan></text><rect x="892.5" y="352.5" width="115" height="35" rx="4" fill="#ffffff" fill-opacity=".96"/><text x="950" y="370" text-anchor="middle" dominant-baseline="middle" font-family="Microsoft YaHei, Noto Sans CJK SC, sans-serif" font-size="19" font-weight="400" fill="#233449"><tspan x="950" dy="0">返回主菜单</tspan></text><rect x="1182.5" y="332.5" width="115" height="35" rx="4" fill="#ffffff" fill-opacity=".96"/><text x="1240" y="350" text-anchor="middle" dominant-baseline="middle" font-family="Microsoft YaHei, Noto Sans CJK SC, sans-serif" font-size="19" font-weight="400" fill="#233449"><tspan x="1240" dy="0">返回主菜单</tspan></text><rect x="795.9" y="617.5" width="168.20000000000002" height="35" rx="4" fill="#ffffff" fill-opacity=".96"/><text x="880" y="635" text-anchor="middle" dominant-baseline="middle" font-family="Microsoft YaHei, Noto Sans CJK SC, sans-serif" font-size="19" font-weight="400" fill="#233449"><tspan x="880" dy="0">开始 / 再次出发</tspan></text><rect x="423.5" y="837.5" width="152.99999999999997" height="35" rx="4" fill="#ffffff" fill-opacity=".96"/><text x="500" y="855" text-anchor="middle" dominant-baseline="middle" font-family="Microsoft YaHei, Noto Sans CJK SC, sans-serif" font-size="19" font-weight="400" fill="#233449"><tspan x="500" dy="0">未收齐 E1—E4</tspan></text><rect x="993.5" y="837.5" width="152.99999999999997" height="35" rx="4" fill="#ffffff" fill-opacity=".96"/><text x="1070" y="855" text-anchor="middle" dominant-baseline="middle" font-family="Microsoft YaHei, Noto Sans CJK SC, sans-serif" font-size="19" font-weight="400" fill="#233449"><tspan x="1070" dy="0">已收齐 E1—E4</tspan></text><rect x="376.5" y="1102.5" width="77" height="35" rx="4" fill="#ffffff" fill-opacity=".96"/><text x="415" y="1120" text-anchor="middle" dominant-baseline="middle" font-family="Microsoft YaHei, Noto Sans CJK SC, sans-serif" font-size="19" font-weight="400" fill="#233449"><tspan x="415" dy="0">出发吧</tspan></text><rect x="711.5" y="1122.5" width="77" height="35" rx="4" fill="#ffffff" fill-opacity=".96"/><text x="750" y="1140" text-anchor="middle" dominant-baseline="middle" font-family="Microsoft YaHei, Noto Sans CJK SC, sans-serif" font-size="19" font-weight="400" fill="#233449"><tspan x="750" dy="0">出发吧</tspan></text><rect x="1522" y="892.5" width="96" height="35" rx="4" fill="#ffffff" fill-opacity=".96"/><text x="1570" y="910" text-anchor="middle" dominant-baseline="middle" font-family="Microsoft YaHei, Noto Sans CJK SC, sans-serif" font-size="19" font-weight="400" fill="#233449"><tspan x="1570" dy="0">我再想想</tspan></text><rect x="1242" y="1102.5" width="96" height="35" rx="4" fill="#ffffff" fill-opacity=".96"/><text x="1290" y="1120" text-anchor="middle" dominant-baseline="middle" font-family="Microsoft YaHei, Noto Sans CJK SC, sans-serif" font-size="19" font-weight="400" fill="#233449"><tspan x="1290" dy="0">我想回去</tspan></text><rect x="1242.5" y="502.5" width="115" height="35" rx="4" fill="#ffffff" fill-opacity=".96"/><text x="1300" y="520" text-anchor="middle" dominant-baseline="middle" font-family="Microsoft YaHei, Noto Sans CJK SC, sans-serif" font-size="19" font-weight="400" fill="#233449"><tspan x="1300" dy="0">返回主菜单</tspan></text><text x="1000" y="1442" text-anchor="middle" dominant-baseline="middle" font-family="Microsoft YaHei, Noto Sans CJK SC, sans-serif" font-size="18" font-weight="400" fill="#835922"><tspan x="1000" dy="0">暂用假设：结局展示完成时记录；点鸟不清收集；TE入口按正文设置在二阶段前言。</tspan></text><text x="1000" y="1476" text-anchor="middle" dominant-baseline="middle" font-family="Microsoft YaHei, Noto Sans CJK SC, sans-serif" font-size="16" font-weight="400" fill="#718095"><tspan x="1000" dy="0">规划稿 · 260915 AMD#1 · 尚未实现 · 原稿歧义见 NOTES.md</tspan></text></svg>